PathFileType	4	(X/Y/Z)	Patient4_TMGait_0pt4_01_right_07.trc.trc
DataRate	CameraRate	NumFrames	NumMarkers	Units	OrigDataRate	OrigDataStartFrame	OrigNumFrames
74.468085106383	74.468085106383	4	33	mm	74.468085106383	124	       141
Frame#	Time	Sacral			L.Shoulder			Chest			R.Shoulder			Neck			R.ASIS			L.ASIS			R.Thigh.Superior			R.Thigh.Lateral			R.Thigh.Inferior			R.Patella			L.Thigh.Superior			L.Thigh.Lateral			L.Thigh.Inferior			L.Patella			L.Shank.Superior			L.Shank.Lateral			L.Shank.Inferior			R.Shank.Superior			R.Shank.Lateral			R.Shank.Inferior			R.Heel			R.Midfoot.Superior			R.Midfoot.Lateral			R.Toe			L.Heel			L.Midfoot.Lateral			L.Midfoot.Superior			L.Toe			L.Elbow			L.Wrist			R.Elbow			R.Wrist			
		X1	Y1	Z1	X2	Y2	Z2	X3	Y3	Z3	X4	Y4	Z4	X5	Y5	Z5	X6	Y6	Z6	X7	Y7	Z7	X8	Y8	Z8	X9	Y9	Z9	X10	Y10	Z10	X11	Y11	Z11	X12	Y12	Z12	X13	Y13	Z13	X14	Y14	Z14	X15	Y15	Z15	X16	Y16	Z16	X17	Y17	Z17	X18	Y18	Z18	X19	Y19	Z19	X20	Y20	Z20	X21	Y21	Z21	X22	Y22	Z22	X23	Y23	Z23	X24	Y24	Z24	X25	Y25	Z25	X26	Y26	Z26	X27	Y27	Z27	X28	Y28	Z28	X29	Y29	Z29	X30	Y30	Z30	X31	Y31	Z31	X32	Y32	Z32	X33	Y33	Z33	

124	10.311714285714	794.132799518228	1002.977441636168	463.261117304081	1008.255594266252	1423.895962783000	289.253833042172	1082.713882249501	1358.579359226684	465.994759949698	976.489205655882	1438.769493581837	624.039240870532	970.698773071912	1491.679553326271	441.784921864058	1009.390084274567	944.116759340902	607.793674460289	1023.897609813767	953.557976470966	331.500163330578	1068.920157715700	750.151543077744	583.831148815052	999.601962189540	634.778961762713	644.717569935394	1084.777255353880	589.523253754495	566.994718321322	1102.217933551428	508.720142927910	577.576107426090	1029.165454733062	727.425025470642	365.013725891939	919.175107552461	629.363279394549	297.211956179138	977.462321008205	538.324173596608	365.839326891978	962.043859901334	471.112374432290	375.798058087650	927.339122194938	404.921498855218	366.225571505496	824.124477695328	303.839396541996	311.151807574692	852.678156933914	187.292782900549	386.468936273558	1086.828859334895	419.437809031660	587.593821297641	1030.137167229648	306.407283490744	648.224363226330	1095.606561319696	219.357906942950	594.309673887909	993.556671402099	42.822792248882	563.337250768427	1160.315041887759	104.261997543606	602.452761581276	1076.306689405517	37.633499915829	638.708380212433	1281.942860307132	57.466977474646	631.067103503935	708.050754862850	39.880630327339	424.648024454191	784.513260646499	35.595849833207	346.967733957441	867.845851047417	95.291558287420	376.357819808466	996.721384914091	39.729199767356	351.966044424839	1043.388629079125	1076.730346997125	166.040170390222	1268.769148303393	946.986061961026	184.088007543720	842.686143675587	1116.346525305581	727.195799379422	857.014157155303	854.438506325662	733.142401767988	
125	10.325142857143	795.765889580222	1001.990217340992	465.693540826915	1007.979625055244	1423.643784815192	292.013397825068	1082.960646684164	1358.498617452364	468.606758482968	976.559917303366	1438.035256875684	626.919465095287	970.484199685092	1491.217328474013	444.695882920756	1011.397269165191	943.371641388783	609.900780645893	1025.403978727255	953.175377769795	333.705995569106	1071.220319830367	749.396970055214	585.243921310723	1000.776797140049	633.794456399193	645.067470035618	1086.330327965552	588.942889365400	567.589736615222	1102.095985348360	507.412394458649	577.421400055077	1030.205948194475	726.767176218582	366.086110567307	919.070999403553	629.195031607584	298.772146936613	977.383975946797	537.629578026403	366.748343842076	961.884612926708	469.865132566823	376.465023802795	925.911688133012	404.174203088299	366.925243248822	821.013280065036	304.639777839349	311.896566840400	848.571416889640	187.337262591053	386.481483281381	1086.290975687294	417.627546006772	587.279289955880	1028.340351729881	305.118068944456	647.676407313201	1092.145767253983	217.408051360033	593.158498214574	987.307521641107	42.841672136375	562.160504710789	1154.578642073328	102.586733735867	600.656647601511	1069.910946288694	37.387583434214	637.748705070241	1276.009748201376	54.548187822824	629.881892184554	702.638123073089	40.734807806424	424.443101250666	779.171945302766	35.857111112879	346.917292949995	862.710097961581	95.400830236272	376.151138153451	991.387371779716	39.540652957383	351.862909328972	1042.167881521631	1076.140332215956	168.850192618272	1264.808644951974	941.214606156935	186.220481247433	846.521420360844	1113.699998640331	730.105478063121	867.154179789184	852.162858899346	736.693862158096	
126	10.338571428571	797.435546289426	1001.206940341743	468.245046772472	1007.669033792286	1423.616421756391	294.874169254169	1083.217155857630	1358.646557283836	471.302455215073	976.674374247699	1437.511404686294	629.913081777905	970.254147108633	1490.973049802401	447.716924527908	1013.513867438042	942.861877422420	612.085478059080	1026.949059550742	953.050552045868	335.986511069350	1073.715691404565	748.936313786435	586.578466169775	1002.414398457623	633.175244989265	645.643504538281	1088.202470660029	588.607201090552	568.263547738729	1102.371778290247	506.248303026025	577.452679629103	1031.496913845170	726.361174068484	367.199540604794	919.425952165216	629.096508668477	300.399241539438	978.007930622542	537.057144959510	367.685627384883	962.548748724107	468.593545866540	377.035926218426	925.076222001303	403.462487276135	367.591599493521	818.316476470110	305.707659915630	312.690416314597	844.742621374752	187.558971391062	386.416331966263	1086.010161023632	416.063728512379	587.177832001378	1026.855938536518	304.184229323294	647.609805178195	1088.713513755277	215.690832876047	592.343415335956	980.909164158652	42.869226155973	561.511653075773	1148.682375602091	101.231110085887	599.420477701325	1063.440969032528	37.248599969820	637.261816045667	1269.961656980139	52.183089942507	629.075116722692	697.274024692009	42.052834292376	424.190558865434	773.866967211049	36.290982111029	346.843448504127	857.744551894586	95.566075374252	375.837410613527	986.072064558821	39.333929099648	351.748861446453	1040.743679169776	1075.705356589076	171.874577989599	1260.008316321547	934.840523628505	188.250226280200	850.857934254792	1111.121472121014	733.220848557009	878.262655255436	850.146038464547	740.677625625733	
127	10.352000000000	799.115715767010	1000.675531361647	470.915907110129	1007.345776981701	1423.851056653489	297.816613749363	1083.489309710104	1359.040310946220	474.060205318043	976.857603023610	1437.242088964851	632.990766964535	970.017549541172	1490.978491366537	450.821812947949	1015.696895037941	942.620579266965	614.349871896256	1028.514357984689	953.234170695416	338.323504601407	1076.257661143896	748.747295405742	587.854327024552	1004.364017415893	632.908679073736	646.473365590190	1090.191910000289	588.474401184000	569.035515692886	1102.889851851420	505.256746941831	577.707538749779	1033.062536116492	726.252947713047	368.386436995193	920.367610223635	629.061887329989	302.078792619100	979.518220231602	536.628355684750	368.634970012353	964.221035962974	467.306257071925	377.460257868505	924.996823683859	402.794620118624	368.185306711281	816.178613528452	307.096489792787	313.513261724415	841.291691037138	188.005305152227	386.241703529780	1085.860465005935	414.783591312490	587.301702497486	1025.613037279997	303.591084660846	647.964924629148	1085.370280747392	214.265274890768	591.849311973260	974.618814947249	42.892752714161	561.288678953473	1142.855482555545	100.203154409037	598.727083755505	1057.136144338198	37.188129925463	637.153763817056	1264.013469819146	50.414390974379	628.620672549601	692.009640214560	43.978943163648	423.879962580193	768.624581503311	36.971492479277	346.736665142668	853.015470656391	95.804842138638	375.386664379061	980.774056849593	39.115891526302	351.629806429311	1039.145169016998	1075.471699085271	175.126562301616	1254.297123360872	927.929613928125	190.186244622453	855.706551889613	1108.693162630065	736.531267616704	890.310155620487	848.512839775012	745.027031755522	
